

Release info:

General
Format                                   : Matroska
Format version                           : Version 2
File size                                : 870 MiB
Duration                                 : 2h 4mn
Overall bit rate                         : 979 Kbps


Video
ID                                       : 1
Format                                   : AVC
Format/Info                              : Advanced Video Codec
Format profile                           : High@L4.0
Format settings, CABAC                   : Yes
Format settings, ReFrames                : 4 frames
Muxing mode                              : Header stripping
Codec ID                                 : V_MPEG4/ISO/AVC
Duration                                 : 2h 4mn
Bit rate                                 : 898 Kbps
Width                                    : 1 280 pixels
Height                                   : 544 pixels
Display aspect ratio                     : 2.35:1
Frame rate mode                          : Constant
Frame rate                               : 23.976 fps
Color space                              : YUV
Chroma subsampling                       : 4:2:0
Bit depth                                : 8 bits
Scan type                                : Progressive
Bits/(Pixel*Frame)                       : 0.054
Stream size                              : 782 MiB (90%)
Default                                  : Yes
Forced                                   : No

Audio #1
ID                                       : 2
Format                                   : MPEG Audio
Format version                           : Version 2
Format profile                           : Layer 3
Mode                                     : Joint stereo
Mode extension                           : MS Stereo
Muxing mode                              : Header stripping
Codec ID                                 : A_MPEG/L3
Codec ID/Hint                            : MP3
Duration                                 : 2h 4mn
Bit rate mode                            : Constant
Bit rate                                 : 32.0 Kbps
Channel(s)                               : 2 channels
Sampling rate                            : 16.0 KHz
Compression mode                         : Lossy
Stream size                              : 28.4 MiB (3%)
Language                                 : English
Default                                  : No
Forced                                   : No

Audio #2
ID                                       : 3
Format                                   : MPEG Audio
Format version                           : Version 2
Format profile                           : Layer 3
Mode                                     : Joint stereo
Mode extension                           : MS Stereo
Muxing mode                              : Header stripping
Codec ID                                 : A_MPEG/L3
Codec ID/Hint                            : MP3
Duration                                 : 2h 4mn
Bit rate mode                            : Constant
Bit rate                                 : 48.0 Kbps
Channel(s)                               : 2 channels
Sampling rate                            : 22.05 KHz
Compression mode                         : Lossy
Delay relative to video                  : 2s 550ms
Stream size                              : 42.6 MiB (5%)
Language                                 : Hindi
Default                                  : Yes
Forced                                   : No


Source:
credit to original movie ripper (Thanks)

IMDB Info:

After being deemed unfit for military service, Steve Rogers volunteers for a top secret research project that turns him into Captain America, a superhero dedicated to defending USA ideals.

Director: Joe Johnston
Writers: Christopher Markus (screenplay), Stephen McFeely (screenplay), 
Stars: Chris Evans, Hugo Weaving and Samuel L. Jackson

Genres: Action | Adventure | Sci-Fi
 
http://www.imdb.com/title/tt0458339/

Screen Shot:
 
http://www.shotpix.com/images/17300301967612923213.png 
http://www.shotpix.com/images/50437791704903373756.png 
http://www.shotpix.com/images/38690854042902130674.png 
http://www.shotpix.com/images/39647717287462094391.png 
http://www.shotpix.com/images/79463894107933524066.png 
http://www.shotpix.com/images/75099846068001043733.png